<svg width="1402" height="785" viewBox="0 0 1402 785" fill="none" xmlns="http://www.w3.org/2000/svg">
<g style="mix-blend-mode:screen">
<g style="mix-blend-mode:screen">
<path d="M1254.48 52.2522L1253.96 52.4886H1253.58C1252.83 53.199 1252.36 54.156 1252.26 55.1845C1252.21 56.0766 1252.49 56.9551 1253.05 57.6527C1253.61 58.3504 1254.4 58.8185 1255.28 58.968H1256.28H1256.94H1257.32H1257.55C1257.92 58.6461 1258.22 58.2543 1258.43 57.8157C1258.64 57.377 1258.76 56.9005 1258.78 56.4142C1258.82 55.7243 1258.67 55.0373 1258.36 54.4228C1258.04 53.8083 1257.57 53.2879 1256.99 52.9143H1256.61H1256.04H1255.62H1254.67L1254.48 52.2522Z" fill="#E7B851"/>
</g>
<g style="mix-blend-mode:screen">
<path d="M1292.08 58.8263L1292.32 59.2047L1292.98 59.7722H1293.26H1293.64H1293.92C1294.56 59.8842 1295.22 59.8099 1295.81 59.5582C1296.41 59.3065 1296.92 58.888 1297.28 58.3533C1297.71 57.7161 1297.93 56.9673 1297.93 56.2014C1297.93 55.4355 1297.71 54.6867 1297.28 54.0495L1296.86 53.6238L1296.1 53.1981H1295.49H1294.16H1293.55L1292.79 53.6238L1292.36 54.0495C1291.93 54.5828 1291.64 55.2232 1291.53 55.9049C1291.42 56.5867 1291.5 57.285 1291.75 57.9276L1292.08 58.8263Z" fill="#EADECF"/>
</g>
<g style="mix-blend-mode:screen">
<path d="M1155.02 0.085609V0.700325V1.22065C1155.37 1.98749 1156 2.59072 1156.78 2.90718C1157.57 3.22365 1158.44 3.22938 1159.23 2.9232L1159.61 2.68679L1160.08 2.30849L1160.36 1.97739L1160.69 1.64629L1161.07 1.07877V0.653128V-0.245492V-0.623934V-1.19145V-1.56975C1160.88 -2.03909 1160.58 -2.46002 1160.2 -2.80308C1159.83 -3.14614 1159.38 -3.40315 1158.9 -3.55621C1158.43 -3.71308 1157.93 -3.7647 1157.44 -3.70747C1156.95 -3.65025 1156.48 -3.48556 1156.06 -3.22511L1155.3 -2.75213L1155.02 -2.37383L1154.69 -1.80631V-1.33333V-0.292833L1155.02 0.085609Z" fill="#F9E59F"/>
</g>
<g style="mix-blend-mode:screen">
<path d="M1295.63 6.70704L1294.63 7.65286L1294.3 8.12584L1294.02 8.83524V9.35556C1294.01 9.9233 1294.13 10.4859 1294.37 11.0017C1294.6 11.5175 1294.95 11.9733 1295.39 12.3352C1295.8 12.6386 1296.27 12.8506 1296.77 12.9567C1297.26 13.0628 1297.78 13.0605 1298.28 12.95H1298.65L1299.17 12.6663L1299.46 12.3824L1300.07 11.673V11.2947V10.6798V10.2542C1300.09 9.4309 1299.84 8.62509 1299.36 7.95336C1298.88 7.28163 1298.21 6.7788 1297.42 6.51782H1296.72H1295.82L1295.63 6.70704Z" fill="#F9F6D2"/>
</g>
<g style="mix-blend-mode:screen">
<path d="M1220.85 12.2876H1221.37H1222.13H1222.65H1222.93C1223.49 12.2671 1224.03 12.1095 1224.51 11.8289C1224.99 11.5483 1225.39 11.1534 1225.68 10.6796V10.1593V9.44988V8.9297L1225.2 7.60544V7.17981C1224.74 6.53335 1224.1 6.0391 1223.36 5.76086H1222.89H1222.37H1221.66H1221.18L1220.29 6.37572L1219.95 6.65948L1219.58 7.17981V7.69998C1219.36 8.08475 1219.22 8.50896 1219.16 8.94818C1219.11 9.3874 1219.14 9.83297 1219.26 10.2593C1219.38 10.6856 1219.58 11.0844 1219.85 11.4324C1220.13 11.7805 1220.47 12.0711 1220.85 12.2876Z" fill="#DFCBB3"/>
</g>
<g style="mix-blend-mode:screen">
<path d="M1367.33 21.7467L1367.04 22.0778V22.3142L1366.62 23.0709V23.3547V23.7803V24.1114C1366.6 24.7517 1366.78 25.3818 1367.12 25.9211C1367.47 26.4604 1367.97 26.8843 1368.56 27.1384C1369.25 27.4575 1370.02 27.5604 1370.77 27.4339C1371.52 27.3073 1372.22 26.957 1372.77 26.4289L1373.1 25.9087L1373.38 25.0574V24.4425V23.1655V22.598L1372.81 21.8886L1372.34 21.5103C1371.74 21.1791 1371.06 21.0052 1370.38 21.0052C1369.69 21.0052 1369.02 21.1791 1368.42 21.5103L1367.33 21.7467Z" fill="#53240B"/>
</g>
<g style="mix-blend-mode:screen">
<path d="M1233.24 207.522L1232.49 208.752V209.414V210.407V211.069L1232.77 211.637V212.015V212.535C1233.14 213.632 1233.79 214.612 1234.66 215.373L1235.37 215.657H1236.46H1237.26L1238.54 214.9L1239.01 214.285L1239.44 213.245V212.488V211.779V211.542C1239.36 211.012 1239.23 210.49 1239.06 209.981C1238.81 209.115 1238.32 208.338 1237.64 207.743C1236.96 207.148 1236.12 206.759 1235.23 206.624H1234.52L1233.62 207.049L1233.24 207.522Z" fill="#F9D46B"/>
</g>
<g style="mix-blend-mode:screen">
<path d="M1349.73 -5.35346C1348.8 -5.96898 1347.67 -6.20567 1346.56 -6.01552H1346.14L1345.57 -5.63722L1345.19 -5.25878L1344.63 -4.36016V-3.93452V-3.27246V-2.84682C1344.75 -2.19323 1344.99 -1.56763 1345.33 -1.00224L1345.62 -0.245504L1345.95 0.227477L1346.9 1.07875L1347.37 1.36251H1348.17H1348.74C1349.72 1.19977 1350.6 0.656763 1351.18 -0.148801C1351.77 -0.954364 1352.01 -1.95764 1351.86 -2.94136C1351.68 -3.46451 1351.41 -3.9472 1351.04 -4.36131C1350.67 -4.77543 1350.23 -5.11273 1349.73 -5.35346Z" fill="#F1E9E1"/>
</g>
<g style="mix-blend-mode:screen">
<path d="M1359.19 63.4611V64.1705V64.4542V64.8799V65.1164L1359.71 65.7312V65.9677L1360.09 66.2515H1360.37C1360.98 66.4944 1361.63 66.5699 1362.27 66.47C1362.91 66.3701 1363.52 66.0985 1364.02 65.684C1364.49 65.2769 1364.86 64.7605 1365.08 64.1797C1365.31 63.5989 1365.39 62.9713 1365.32 62.3513C1365.25 61.7314 1365.03 61.1379 1364.68 60.6225C1364.33 60.107 1363.86 59.6851 1363.31 59.3936C1362.86 59.1833 1362.38 59.0742 1361.89 59.0742C1361.4 59.0742 1360.91 59.1833 1360.47 59.3936C1359.83 59.8308 1359.36 60.4693 1359.13 61.2067C1358.9 61.9442 1358.92 62.738 1359.19 63.4611Z" fill="#4B2008"/>
</g>
<g style="mix-blend-mode:screen">
<path d="M1316.44 51.4007V51.0224V50.3602L1316.15 49.8874L1315.82 49.509V48.9414L1315.11 47.9009L1314.69 47.5227L1313.98 47.097H1313.41C1312.92 47.0702 1312.42 47.1469 1311.96 47.3222C1311.5 47.4974 1311.08 47.7673 1310.73 48.1147C1310.37 48.4621 1310.1 48.8792 1309.92 49.3392C1309.74 49.7992 1309.65 50.2921 1309.67 50.786L1310.29 51.4954V52.1575L1311.23 53.3399V53.9074C1311.66 54.3575 1312.22 54.6733 1312.82 54.8164C1313.43 54.9595 1314.06 54.9238 1314.65 54.7135C1315.23 54.5032 1315.75 54.1274 1316.12 53.6317C1316.5 53.136 1316.72 52.5418 1316.77 51.9211L1316.44 51.4007Z" fill="#EEE3D8"/>
</g>
<g style="mix-blend-mode:screen">
<path d="M1252.4 81.1022L1252.82 82.0482L1253.11 82.4266L1253.58 82.8995L1253.96 83.136L1254.95 83.5617H1255.38H1256.04H1256.51C1257.03 83.3984 1257.51 83.1258 1257.91 82.7624C1258.31 82.3989 1258.63 81.9532 1258.85 81.4553C1259.06 80.9574 1259.17 80.4189 1259.16 79.8765C1259.15 79.3342 1259.02 78.8006 1258.78 78.3118V78.0281L1258.45 77.6498L1257.93 77.2241L1257.51 76.9876L1256.51 76.6566H1255.43H1254.95L1254.01 77.0823L1253.63 77.366L1253.16 77.8862L1252.87 78.2646L1252.16 79.3997V79.8727V80.5821L1252.4 81.1022Z" fill="#9F5504"/>
</g>
<g style="mix-blend-mode:screen">
<path d="M1366.57 73.4403L1366.14 73.6768L1365.62 74.1498L1365.34 74.5281L1364.82 75.5213V75.9943V76.7037V77.224C1364.98 77.7767 1365.25 78.2882 1365.63 78.7217C1366 79.1552 1366.47 79.4998 1367 79.7306H1367.37H1368.7H1369.08H1369.36C1370.1 79.3189 1370.67 78.6472 1370.95 77.8443C1371.23 77.0415 1371.2 76.1638 1370.87 75.3794C1370.53 74.5774 1369.89 73.9339 1369.1 73.5751C1368.3 73.2163 1367.4 73.1681 1366.57 73.4403Z" fill="#F9DD85"/>
</g>
<g style="mix-blend-mode:screen">
<path d="M1371.3 43.266L1370.59 44.4957V45.0632V45.82V46.3403C1370.74 46.8865 1371.01 47.3903 1371.39 47.8099C1371.76 48.2294 1372.24 48.5525 1372.77 48.7522C1373.24 48.9309 1373.76 48.9983 1374.27 48.9491C1374.77 48.8999 1375.26 48.7356 1375.7 48.4685L1376.03 48.1847L1376.41 47.7591V47.428L1376.74 46.5294V46.1037V45.4889V45.0632C1376.5 44.2674 1376.01 43.5684 1375.35 43.0669C1374.69 42.5655 1373.88 42.2874 1373.05 42.2728H1372.39L1371.58 42.6985L1371.3 43.266Z" fill="#662B02"/>
</g>
<g style="mix-blend-mode:screen">
<path d="M1330.96 110.047L1330.67 110.614H1330.39C1330.11 111.256 1329.99 111.951 1330.01 112.648V113.452V113.83L1330.34 114.351L1330.63 114.635L1331.38 115.202H1333.13L1334.27 113.783V112.601V112.364V110.614L1333.09 109.243H1331.29L1330.53 109.905L1330.96 110.047Z" fill="#F9E59F"/>
</g>
<g style="mix-blend-mode:screen">
<path d="M1394.05 39.4349L1393.62 38.9148L1393.34 38.5837C1392.8 38.1135 1392.14 37.7853 1391.44 37.6285C1390.74 37.4717 1390.01 37.4911 1389.32 37.685C1388.71 37.9031 1388.15 38.26 1387.7 38.7277C1387.25 39.1954 1386.91 39.7612 1386.72 40.3809C1386.48 41.1833 1386.43 42.0323 1386.59 42.8558C1386.74 43.6793 1387.1 44.4528 1387.62 45.1104C1388.16 45.6724 1388.83 46.0917 1389.57 46.331C1390.32 46.5704 1391.11 46.6223 1391.87 46.482H1392.3L1392.87 46.1509L1393.2 45.8198L1393.86 44.9685V44.5429V43.8807V43.5497V42.9821C1394.14 41.9604 1394.14 40.8824 1393.86 39.8607L1394.05 39.4349Z" fill="#F9EEB8"/>
</g>
<g style="mix-blend-mode:screen">
<path d="M1388.33 45.8199V46.151V46.624V47.9483V48.3266C1388.38 48.9079 1388.6 49.4633 1388.94 49.9346L1389.27 50.313L1389.93 50.6913H1390.41H1391.68H1392.02C1392.64 50.6388 1393.24 50.4271 1393.77 50.0765L1394.1 49.6982L1394.47 49.0833V48.6103V47.3334V46.7659L1394.81 46.4348L1395.42 45.5362V45.0632V44.4011V43.9281C1395.19 43.029 1394.71 42.2109 1394.05 41.5634L1393.39 41.0432H1393.01H1392.44H1391.07H1390.64L1390.08 41.2796L1389.7 41.516C1389.22 41.9047 1388.83 42.3943 1388.56 42.9501C1388.29 43.506 1388.15 44.1145 1388.14 44.7322C1388.15 45.1021 1388.21 45.4685 1388.33 45.8199Z" fill="#793903"/>
</g>
<g style="mix-blend-mode:screen">
<path d="M1244.64 220.718V220.197V219.393C1244.62 218.841 1244.48 218.301 1244.23 217.81C1243.97 217.319 1243.62 216.891 1243.18 216.556C1242.55 216.045 1241.79 215.74 1240.98 215.681C1240.18 215.622 1239.37 215.812 1238.68 216.226C1237.99 216.639 1237.44 217.256 1237.11 217.992C1236.78 218.728 1236.69 219.547 1236.84 220.339V220.859L1237.12 221.332V221.569L1238.21 222.42L1238.64 222.657H1239.3H1239.77H1240.91H1241.38L1241.95 222.326L1242.33 221.995L1243.18 220.907L1244.64 220.718Z" fill="#793903"/>
</g>
<g style="mix-blend-mode:screen">
<path d="M1226.81 166.564L1227.05 166.281V165.855V165.524V164.673V163.774V163.443C1226.49 162.409 1225.59 161.592 1224.52 161.12C1223.44 160.649 1222.23 160.551 1221.09 160.842L1220.38 161.267L1219.62 162.166L1219.34 162.97V164.531L1219.62 165.288L1220.29 166.186L1220.81 166.564L1221.23 166.801C1223.79 168.031 1225.54 167.983 1226.81 166.564Z" fill="#F9E59F"/>
</g>
<g style="mix-blend-mode:screen">
<path d="M1384.83 75.6632L1384.31 75.3794H1383.74C1383.26 75.1342 1382.72 75.0066 1382.18 75.0066C1381.64 75.0066 1381.1 75.1342 1380.62 75.3794L1379.81 75.9469V76.1835L1379.58 76.5618V76.8455V77.5077V77.7915V78.5009C1379.65 79.058 1379.85 79.5895 1380.18 80.0505C1380.5 80.5115 1380.92 80.8884 1381.42 81.1494C1382.02 81.4566 1382.69 81.6168 1383.36 81.6168C1384.03 81.6168 1384.7 81.4566 1385.3 81.1494C1385.78 80.9019 1386.19 80.539 1386.5 80.0932C1386.8 79.6474 1386.99 79.1327 1387.05 78.5954V77.6023L1386.72 76.8455L1386.34 76.3254L1384.83 75.6632Z" fill="#EADECF"/>
</g>
<g style="mix-blend-mode:screen">
<path d="M1274.68 84.129L1275.05 83.7034V83.325L1275.43 82.4265V82.048V81.0075V80.3455V79.967L1275.05 79.4469L1274.72 79.1158L1273.68 78.5009H1273.45C1272.97 78.2852 1272.45 78.1878 1271.93 78.2171H1271.32L1270.56 78.6901L1270.14 79.1631L1269.47 80.3927V80.8657V82.048C1269.6 82.6121 1269.86 83.1379 1270.23 83.582C1270.6 84.0261 1271.07 84.3758 1271.6 84.602C1272.1 84.7666 1272.62 84.8264 1273.14 84.7775C1273.67 84.7287 1274.17 84.5723 1274.63 84.3183L1274.68 84.129Z" fill="#E7D8C6"/>
</g>
<g style="mix-blend-mode:screen">
<path d="M1389.32 26.0032V25.5302L1388.99 24.8682L1388.7 24.4899L1387.85 23.7803L1387.43 23.5439L1386.77 23.3075H1386.25C1385.67 23.3314 1385.11 23.4741 1384.6 23.7265C1384.09 23.9789 1383.63 24.3356 1383.27 24.7736V25.0101V25.3412V25.5776V26.3817V27.3275C1383.45 28.1574 1383.94 28.8854 1384.65 29.3608C1385.35 29.8362 1386.21 30.0226 1387.05 29.8814C1387.83 29.6124 1388.49 29.0735 1388.9 28.3622C1389.32 27.6509 1389.47 26.8142 1389.32 26.0032Z" fill="#F9F6D2"/>
</g>
<g style="mix-blend-mode:screen">
<path d="M1325.47 213.954V212.961L1325.19 211.637V211.211C1324.83 210.091 1324.05 209.155 1323.01 208.61H1322.4H1321.26H1319.98L1319.13 209.083C1318.48 209.932 1318.2 211.002 1318.33 212.062C1318.4 212.585 1318.57 213.089 1318.84 213.544C1319.11 213.999 1319.47 214.395 1319.89 214.711C1320.3 215.048 1320.77 215.297 1321.28 215.442C1321.79 215.588 1322.32 215.626 1322.85 215.555C1323.37 215.484 1323.87 215.305 1324.33 215.029C1324.78 214.754 1325.17 214.388 1325.47 213.954Z" fill="#F9DD85"/>
</g>
<g style="mix-blend-mode:screen">
<path d="M1364.68 156.065C1364.67 156.554 1364.77 157.039 1364.97 157.488C1365.16 157.936 1365.45 158.338 1365.81 158.666C1366.42 159.289 1367.22 159.682 1368.08 159.777C1368.95 159.871 1369.82 159.663 1370.54 159.186H1370.87L1371.25 158.903L1371.68 158.383V157.957V157.626C1372 157.245 1372.24 156.797 1372.37 156.315C1372.5 155.833 1372.52 155.328 1372.44 154.835C1372.28 153.995 1371.81 153.248 1371.11 152.754C1370.39 152.141 1369.48 151.805 1368.53 151.805C1367.59 151.805 1366.67 152.141 1365.96 152.754C1365.51 153.174 1365.16 153.69 1364.94 154.263C1364.72 154.837 1364.63 155.453 1364.68 156.065Z" fill="#C47F1E"/>
</g>
<g style="mix-blend-mode:screen">
<path d="M1320.74 79.0211L1321.17 79.494L1321.55 79.7777C1322.11 80.1997 1322.78 80.4726 1323.48 80.5717C1324.19 80.6708 1324.9 80.5931 1325.57 80.3454C1326.18 80.0979 1326.71 79.6986 1327.13 79.1855C1327.54 78.6725 1327.82 78.0624 1327.93 77.413C1328.14 76.581 1328.13 75.7108 1327.9 74.8835C1327.68 74.0563 1327.25 73.2992 1326.65 72.6835C1326.06 72.1648 1325.35 71.8024 1324.58 71.629C1323.81 71.4555 1323.01 71.4766 1322.25 71.6903H1321.88L1321.31 72.1159L1321.02 72.447L1320.46 73.3457V73.7713V74.4335V75.3793C1320.3 76.435 1320.43 77.5124 1320.84 78.5008L1320.74 79.0211Z" fill="#D6BDA1"/>
</g>
<g style="mix-blend-mode:screen">
<path d="M1253.96 158.855L1252.73 159.612L1252.26 160.132L1251.83 160.984V161.693V162.308V162.686V163.254C1251.65 164.387 1251.78 165.547 1252.21 166.612L1252.73 167.227L1253.63 167.794H1254.43H1255.9L1256.66 167.51L1257.46 166.801L1257.84 166.091V165.429V165.193C1257.99 164.683 1258.1 164.161 1258.17 163.632C1258.34 162.745 1258.25 161.829 1257.91 160.991C1257.58 160.153 1257.01 159.428 1256.28 158.903H1255.62H1254.62L1253.96 158.855Z" fill="#3B1703"/>
</g>
<g style="mix-blend-mode:screen">
<path d="M1394.05 60.9547C1394.54 60.6933 1394.97 60.337 1395.32 59.9065C1395.67 59.4761 1395.93 58.9802 1396.08 58.448V57.975V57.2656V56.84L1395.56 55.8467L1395.28 55.5157L1394.76 55.09L1394.33 54.8535C1393.7 54.7026 1393.03 54.7026 1392.39 54.8535H1391.59H1391.02L1389.84 55.2792L1389.37 55.6103L1388.85 56.2251L1388.56 56.6981C1388.41 57.1639 1388.34 57.6557 1388.38 58.1456C1388.41 58.6355 1388.55 59.1138 1388.76 59.553C1388.98 59.9923 1389.29 60.384 1389.66 60.7057C1390.03 61.0273 1390.46 61.2727 1390.93 61.4276C1391.45 61.5608 1392 61.5875 1392.54 61.5063C1393.07 61.4251 1393.59 61.2376 1394.05 60.9547Z" fill="#DFCBB3"/>
</g>
<g style="mix-blend-mode:screen">
<path d="M1345.71 52.6778L1346 52.0156V51.7318V51.0224V50.2657V49.9346V49.509V49.2252C1345.64 48.6887 1345.14 48.2598 1344.56 47.9848C1343.97 47.7098 1343.33 47.5991 1342.69 47.6645C1342.01 47.7303 1341.37 47.9815 1340.82 48.3904C1340.28 48.7993 1339.86 49.3501 1339.61 49.9819C1339.35 50.4873 1339.22 51.0465 1339.22 51.6136C1339.22 52.1808 1339.35 52.7399 1339.61 53.2453C1339.85 53.6807 1340.18 54.0565 1340.58 54.3436C1340.98 54.6306 1341.44 54.8212 1341.93 54.9007C1342.72 55.0357 1343.53 54.8867 1344.23 54.4799C1344.92 54.0732 1345.45 53.4349 1345.71 52.6778Z" fill="#F9DD85"/>
</g>
<g style="mix-blend-mode:screen">
<path d="M1309.63 101.865L1309.25 102.243L1308.92 103.047V103.52V104.04L1308.59 104.561L1308.16 105.743V106.311V107.162L1308.4 107.682C1308.66 108.102 1309.01 108.46 1309.42 108.732C1309.84 109.004 1310.3 109.185 1310.79 109.261C1311.28 109.337 1311.78 109.307 1312.26 109.174C1312.73 109.04 1313.17 108.806 1313.55 108.486V107.588L1314.12 107.304L1314.5 105.838L1314.88 105.412C1314.98 104.77 1314.9 104.112 1314.64 103.515C1314.38 102.919 1313.95 102.412 1313.41 102.054C1312.88 101.619 1312.23 101.366 1311.55 101.332C1310.87 101.298 1310.19 101.485 1309.63 101.865Z" fill="#C47F1E"/>
</g>
<g style="mix-blend-mode:screen">
<path d="M1396.74 115.77V115.344V114.635V114.114V113.026V112.601L1396.32 112.033L1395.94 111.702C1395.48 111.363 1394.94 111.136 1394.38 111.037C1393.81 110.939 1393.23 110.972 1392.68 111.135H1392.44H1392.11L1391.5 111.655L1391.26 111.939V112.175C1390.92 112.964 1390.9 113.85 1391.19 114.656C1391.48 115.463 1392.06 116.13 1392.82 116.526C1393.47 116.816 1394.2 116.899 1394.9 116.764C1395.6 116.628 1396.25 116.281 1396.74 115.77Z" fill="#6D341B"/>
</g>
<g style="mix-blend-mode:screen">
<path d="M1363.69 157.295L1363.12 156.68H1362.79L1362.22 156.443H1361.79H1360.8H1360.33H1359.76H1359.33L1358.81 156.822L1358.48 157.2L1358.1 157.815V158.241V159.376V159.849V160.511V160.936L1358.72 161.788L1359.05 162.119L1359.62 162.45H1360.04H1361.08H1361.56H1362.22H1362.64C1363.08 162.196 1363.45 161.855 1363.75 161.448C1364.04 161.04 1364.24 160.576 1364.35 160.085C1364.5 159.104 1364.26 158.102 1363.69 157.295Z" fill="#D59C38"/>
</g>
<g style="mix-blend-mode:screen">
<path d="M1398.4 178.72V179.334L1398.68 179.713C1399.1 180.288 1399.66 180.747 1400.31 181.045C1400.95 181.343 1401.66 181.47 1402.37 181.415C1403.02 181.352 1403.65 181.13 1404.19 180.766C1404.74 180.403 1405.19 179.912 1405.49 179.334C1405.91 178.574 1406.13 177.72 1406.13 176.851C1406.13 175.983 1405.91 175.129 1405.49 174.368C1405.11 173.682 1404.55 173.112 1403.86 172.721C1403.18 172.329 1402.4 172.13 1401.62 172.145H1401.14L1400.53 172.382L1400.1 172.618L1399.35 173.328L1399.06 173.706L1398.73 174.274V174.652V175.172C1398.25 176.122 1398.06 177.189 1398.16 178.247L1398.4 178.72Z" fill="#F9E59F"/>
</g>
<g style="mix-blend-mode:screen">
<path d="M1336.11 314.693L1334.93 315.45L1334.46 316.017L1334.08 316.916V317.578V318.24V318.618V319.139C1333.95 320.285 1334.13 321.445 1334.6 322.497L1335.12 323.112L1336.06 323.632H1336.82H1338.34L1339.04 323.301L1339.85 322.544L1340.23 321.835V321.125V320.889C1340.38 320.38 1340.47 319.857 1340.51 319.328C1340.66 318.427 1340.55 317.501 1340.19 316.662C1339.83 315.823 1339.24 315.106 1338.48 314.599H1337.77H1336.77L1336.11 314.693Z" fill="#E7B851"/>
</g>
<g style="mix-blend-mode:screen">
<path d="M1316.82 34.9422V34.3746V33.949C1316.34 33.0435 1315.52 32.3634 1314.55 32.0571C1313.7 31.7834 1312.78 31.8353 1311.96 32.2024C1311.15 32.5695 1310.5 33.2257 1310.15 34.0435V34.3273V34.7056V35.9827V36.361V36.5975C1310.36 37.034 1310.65 37.4228 1311.02 37.7401C1311.39 38.0573 1311.81 38.2961 1312.28 38.442C1312.94 38.6466 1313.65 38.6713 1314.34 38.5136C1315.02 38.3558 1315.64 38.0211 1316.15 37.5433V37.2122L1316.44 36.6921V36.3138V35.3678L1316.82 34.9422Z" fill="#3B1703"/>
</g>
<g style="mix-blend-mode:screen">
<path d="M1395.61 173.422L1396.32 174.179L1396.7 174.463L1397.27 174.747H1397.74H1398.78H1399.25H1399.87H1400.29C1400.74 174.414 1401.11 173.988 1401.38 173.498C1401.65 173.009 1401.81 172.466 1401.85 171.909C1401.9 171.389 1401.83 170.865 1401.65 170.375C1401.47 169.885 1401.18 169.44 1400.81 169.071V168.835L1400.39 168.551L1399.77 168.314H1399.3H1398.26H1397.79L1397.17 168.551L1396.79 168.787L1396.04 169.497L1395.75 169.875L1395.42 170.537V171.01V172.098V172.571L1395.66 173.233L1395.61 173.422Z" fill="#F9F6D2"/>
</g>
<g style="mix-blend-mode:screen">
<path d="M1400.48 226.771V226.015L1400.2 225.163V224.88V224.501V224.265C1399.71 223.84 1399.12 223.561 1398.48 223.46C1397.85 223.36 1397.19 223.442 1396.6 223.697C1395.9 224.008 1395.31 224.521 1394.91 225.17C1394.51 225.819 1394.3 226.575 1394.33 227.339V227.954L1394.76 228.71L1395.18 229.136L1396.32 229.845H1396.89H1397.79H1398.4C1399.05 229.612 1399.62 229.215 1400.07 228.693C1400.52 228.171 1400.82 227.541 1400.95 226.866L1400.48 226.771Z" fill="#F9E59F"/>
</g>
<path d="M754.636 -1340.04L671.029 -1256.44L2386.65 459.176L2470.26 375.569L754.636 -1340.04Z" fill="url(#paint0_linear_1_4168)"/>
<path d="M686.068 -1271.46L671.019 -1256.41L2386.64 459.201L2401.69 444.152L686.068 -1271.46Z" fill="url(#paint1_linear_1_4168)"/>
<path d="M286.922 -1044.81L281.704 -1039.59L2105.22 783.909L2110.43 778.692L286.922 -1044.81Z" fill="url(#paint2_linear_1_4168)"/>
<path d="M532.885 -1300.17L527.668 -1294.95L2351.18 528.546L2356.4 523.329L532.885 -1300.17Z" fill="url(#paint3_linear_1_4168)"/>
<path d="M828.494 -1461L823.277 -1455.78L2646.79 367.716L2652.01 362.499L828.494 -1461Z" fill="url(#paint4_linear_1_4168)"/>
<path d="M194.732 -1048L189.514 -1042.78L2013.03 780.716L2018.24 775.498L194.732 -1048Z" fill="url(#paint5_linear_1_4168)"/>
<path d="M5.21708 -1043.73L-3.05176e-05 -1038.51L1823.51 784.987L1828.73 779.77L5.21708 -1043.73Z" fill="url(#paint6_linear_1_4168)"/>
<path d="M640.382 -1421.94L635.165 -1416.72L2458.68 406.779L2463.89 401.561L640.382 -1421.94Z" fill="url(#paint7_linear_1_4168)"/>
<g style="mix-blend-mode:screen">
<path d="M1730.18 -291.063C1951.8 -69.4384 2116.49 125.134 2098.04 143.674C2079.6 162.213 1884.93 -2.51562 1663.3 -224.141C1441.68 -445.766 1276.95 -640.338 1295.44 -658.878C1313.93 -677.418 1508.55 -512.689 1730.18 -291.063Z" fill="url(#paint8_radial_1_4168)"/>
</g>
<g style="mix-blend-mode:screen">
<path d="M1462.96 -255.592C1684.59 -33.9669 1849.27 160.605 1830.82 179.145C1812.38 197.685 1617.71 32.9558 1396.08 -188.669C1174.46 -410.294 1009.73 -604.867 1028.22 -623.406C1046.71 -641.946 1241.33 -477.217 1462.96 -255.592Z" fill="url(#paint9_radial_1_4168)"/>
</g>
<g style="mix-blend-mode:screen">
<path d="M1448.3 -240.93C1572.92 -116.355 1665.53 -6.91388 1655.12 3.72754C1644.72 14.369 1535.32 -78.4715 1410.7 -203.094C1286.07 -327.717 1193.52 -437.347 1203.92 -447.752C1214.33 -458.157 1323.72 -365.553 1448.3 -240.93Z" fill="url(#paint10_radial_1_4168)"/>
</g>
<g style="mix-blend-mode:screen">
<path d="M1418.03 32.9086C1639.65 254.534 1804.34 449.106 1785.89 467.646C1767.45 486.185 1572.78 321.456 1351.15 99.8312C1129.53 -121.794 964.795 -316.366 983.288 -334.906C1001.78 -353.446 1196.4 -188.717 1418.03 32.9086Z" fill="url(#paint11_radial_1_4168)"/>
</g>
<g style="mix-blend-mode:screen">
<path d="M1403.51 47.5698C1527.99 172.145 1620.59 281.586 1610.19 292.228C1599.78 302.869 1490.39 209.792 1365.67 85.1695C1240.95 -39.4532 1148.59 -148.847 1158.99 -159.252C1169.4 -169.657 1278.79 -77.0529 1403.51 47.5698Z" fill="url(#paint12_radial_1_4168)"/>
</g>
</g>
<defs>
<linearGradient id="paint0_linear_1_4168" x1="556.052" y1="-1448.33" x2="2616.12" y2="598.379" gradientUnits="userSpaceOnUse">
<stop stop-color="#F4EFEA"/>
<stop offset="0.06" stop-color="#F3EDE8"/>
<stop offset="0.53" stop-color="#EEE3D8"/>
<stop offset="0.99" stop-color="#E3D1BD"/>
</linearGradient>
<linearGradient id="paint1_linear_1_4168" x1="2190.2" y1="247.709" x2="1151" y2="-791.498" gradientUnits="userSpaceOnUse">
<stop stop-color="#F4E0AE"/>
<stop offset="0.2" stop-color="#EACD8C"/>
<stop offset="0.32" stop-color="#E5C47C"/>
<stop offset="0.36" stop-color="#E0BE77"/>
<stop offset="0.42" stop-color="#D2AD69"/>
<stop offset="0.5" stop-color="#BC9152"/>
<stop offset="0.54" stop-color="#AA7A40"/>
<stop offset="0.62" stop-color="#C09657"/>
<stop offset="0.72" stop-color="#D4AF6B"/>
<stop offset="0.8" stop-color="#E1BF78"/>
<stop offset="0.87" stop-color="#E5C47C"/>
</linearGradient>
<linearGradient id="paint2_linear_1_4168" x1="1891.31" y1="564.391" x2="786.768" y2="-540.163" gradientUnits="userSpaceOnUse">
<stop stop-color="#F4E0AE"/>
<stop offset="0.2" stop-color="#EACD8C"/>
<stop offset="0.32" stop-color="#E5C47C"/>
<stop offset="0.36" stop-color="#E0BE77"/>
<stop offset="0.42" stop-color="#D2AD69"/>
<stop offset="0.5" stop-color="#BC9152"/>
<stop offset="0.54" stop-color="#AA7A40"/>
<stop offset="0.62" stop-color="#C09657"/>
<stop offset="0.72" stop-color="#D4AF6B"/>
<stop offset="0.8" stop-color="#E1BF78"/>
<stop offset="0.87" stop-color="#E5C47C"/>
</linearGradient>
<linearGradient id="paint3_linear_1_4168" x1="2137.28" y1="309.028" x2="1032.73" y2="-795.526" gradientUnits="userSpaceOnUse">
<stop stop-color="#F4E0AE"/>
<stop offset="0.2" stop-color="#EACD8C"/>
<stop offset="0.32" stop-color="#E5C47C"/>
<stop offset="0.36" stop-color="#E0BE77"/>
<stop offset="0.42" stop-color="#D2AD69"/>
<stop offset="0.5" stop-color="#BC9152"/>
<stop offset="0.54" stop-color="#AA7A40"/>
<stop offset="0.62" stop-color="#C09657"/>
<stop offset="0.72" stop-color="#D4AF6B"/>
<stop offset="0.8" stop-color="#E1BF78"/>
<stop offset="0.87" stop-color="#E5C47C"/>
</linearGradient>
<linearGradient id="paint4_linear_1_4168" x1="2432.85" y1="148.164" x2="1328.31" y2="-956.39" gradientUnits="userSpaceOnUse">
<stop stop-color="#F4E0AE"/>
<stop offset="0.2" stop-color="#EACD8C"/>
<stop offset="0.32" stop-color="#E5C47C"/>
<stop offset="0.36" stop-color="#E0BE77"/>
<stop offset="0.42" stop-color="#D2AD69"/>
<stop offset="0.5" stop-color="#BC9152"/>
<stop offset="0.54" stop-color="#AA7A40"/>
<stop offset="0.62" stop-color="#C09657"/>
<stop offset="0.72" stop-color="#D4AF6B"/>
<stop offset="0.8" stop-color="#E1BF78"/>
<stop offset="0.87" stop-color="#E5C47C"/>
</linearGradient>
<linearGradient id="paint5_linear_1_4168" x1="1798.86" y1="561.331" x2="694.31" y2="-543.223" gradientUnits="userSpaceOnUse">
<stop stop-color="#F4E0AE"/>
<stop offset="0.2" stop-color="#EACD8C"/>
<stop offset="0.32" stop-color="#E5C47C"/>
<stop offset="0.36" stop-color="#E0BE77"/>
<stop offset="0.42" stop-color="#D2AD69"/>
<stop offset="0.5" stop-color="#BC9152"/>
<stop offset="0.54" stop-color="#AA7A40"/>
<stop offset="0.62" stop-color="#C09657"/>
<stop offset="0.72" stop-color="#D4AF6B"/>
<stop offset="0.8" stop-color="#E1BF78"/>
<stop offset="0.87" stop-color="#E5C47C"/>
</linearGradient>
<linearGradient id="paint6_linear_1_4168" x1="1609.58" y1="565.502" x2="505.03" y2="-539.052" gradientUnits="userSpaceOnUse">
<stop stop-color="#F4E0AE"/>
<stop offset="0.2" stop-color="#EACD8C"/>
<stop offset="0.32" stop-color="#E5C47C"/>
<stop offset="0.36" stop-color="#E0BE77"/>
<stop offset="0.42" stop-color="#D2AD69"/>
<stop offset="0.5" stop-color="#BC9152"/>
<stop offset="0.54" stop-color="#AA7A40"/>
<stop offset="0.62" stop-color="#C09657"/>
<stop offset="0.72" stop-color="#D4AF6B"/>
<stop offset="0.8" stop-color="#E1BF78"/>
<stop offset="0.87" stop-color="#E5C47C"/>
</linearGradient>
<linearGradient id="paint7_linear_1_4168" x1="2244.47" y1="187.428" x2="1139.93" y2="-917.126" gradientUnits="userSpaceOnUse">
<stop stop-color="#F4E0AE"/>
<stop offset="0.2" stop-color="#EACD8C"/>
<stop offset="0.32" stop-color="#E5C47C"/>
<stop offset="0.36" stop-color="#E0BE77"/>
<stop offset="0.42" stop-color="#D2AD69"/>
<stop offset="0.5" stop-color="#BC9152"/>
<stop offset="0.54" stop-color="#AA7A40"/>
<stop offset="0.62" stop-color="#C09657"/>
<stop offset="0.72" stop-color="#D4AF6B"/>
<stop offset="0.8" stop-color="#E1BF78"/>
<stop offset="0.87" stop-color="#E5C47C"/>
</linearGradient>
<radialGradient id="paint8_radial_1_4168" cx="0" cy="0" r="1" gradientUnits="userSpaceOnUse" gradientTransform="translate(1544.74 -105.523) rotate(-44.9998) scale(45.4149 567.686)">
<stop stop-color="#8C4703"/>
<stop offset="0.09" stop-color="#7B3F03"/>
<stop offset="0.49" stop-color="#391D01"/>
<stop offset="0.78" stop-color="#100800"/>
<stop offset="0.93"/>
</radialGradient>
<radialGradient id="paint9_radial_1_4168" cx="0" cy="0" r="1" gradientUnits="userSpaceOnUse" gradientTransform="translate(1283.51 -76.0469) rotate(-44.9998) scale(45.4149 567.686)">
<stop stop-color="#8C4703"/>
<stop offset="0.09" stop-color="#7B3F03"/>
<stop offset="0.49" stop-color="#391D01"/>
<stop offset="0.78" stop-color="#100800"/>
<stop offset="0.93"/>
</radialGradient>
<radialGradient id="paint10_radial_1_4168" cx="0" cy="0" r="1" gradientUnits="userSpaceOnUse" gradientTransform="translate(1674.41 -500.782) rotate(-44.9998) scale(28.3914 317.984)">
<stop stop-color="#F9EEB8"/>
<stop offset="0.04" stop-color="#EBE1AE"/>
<stop offset="0.23" stop-color="#A59D7A"/>
<stop offset="0.41" stop-color="#6A654E"/>
<stop offset="0.58" stop-color="#3C3A2D"/>
<stop offset="0.72" stop-color="#1B1A14"/>
<stop offset="0.85" stop-color="#070705"/>
<stop offset="0.93"/>
</radialGradient>
<radialGradient id="paint11_radial_1_4168" cx="0" cy="0" r="1" gradientUnits="userSpaceOnUse" gradientTransform="translate(1245.19 205.867) rotate(-44.9998) scale(45.4149 567.686)">
<stop stop-color="#8C4703"/>
<stop offset="0.09" stop-color="#7B3F03"/>
<stop offset="0.49" stop-color="#391D01"/>
<stop offset="0.78" stop-color="#100800"/>
<stop offset="0.93"/>
</radialGradient>
<radialGradient id="paint12_radial_1_4168" cx="0" cy="0" r="1" gradientUnits="userSpaceOnUse" gradientTransform="translate(1617.66 -201.387) rotate(-44.9998) scale(28.3914 317.984)">
<stop stop-color="#F9EEB8"/>
<stop offset="0.04" stop-color="#EBE1AE"/>
<stop offset="0.23" stop-color="#A59D7A"/>
<stop offset="0.41" stop-color="#6A654E"/>
<stop offset="0.58" stop-color="#3C3A2D"/>
<stop offset="0.72" stop-color="#1B1A14"/>
<stop offset="0.85" stop-color="#070705"/>
<stop offset="0.93"/>
</radialGradient>
</defs>
</svg>
